<svg width="139" height="143" viewBox="0 0 139 143" fill="none" xmlns="http://www.w3.org/2000/svg">
<rect x="6.85547" y="8.25469" width="125" height="126" rx="62.5" fill="white" fill-opacity="0.1"/>
<path d="M38.2234 93.7045C37.3485 93.6325 36.6934 93.7825 36.2581 94.1547C35.8348 94.5268 35.6192 95.1451 35.6111 96.0094L35.6078 96.3695L38.1986 96.3695L38.1878 97.522L35.597 97.522L35.5238 105.373L34.3364 105.373L34.4096 97.522L32.8803 97.522L32.891 96.3695L34.4203 96.3695L34.4237 96.0094C34.4346 94.8329 34.7668 93.9446 35.4201 93.3444C36.0855 92.7321 37.0235 92.468 38.2341 92.552L38.2234 93.7045ZM46.3841 104.239C45.4641 105.139 44.3444 105.589 43.025 105.589C41.7056 105.589 40.5884 105.139 39.6732 104.239C38.7701 103.326 38.3248 102.204 38.3372 100.871C38.3496 99.5388 38.8158 98.4223 39.7358 97.522C40.6679 96.6096 41.7936 96.1535 43.113 96.1535C44.4324 96.1535 45.5436 96.6096 46.4467 97.522C47.3619 98.4223 47.8133 99.5388 47.8008 100.871C47.7884 102.204 47.3162 103.326 46.3841 104.239ZM40.5265 103.41C41.2038 104.095 42.0402 104.437 43.0358 104.437C44.0313 104.437 44.8741 104.095 45.5642 103.41C46.2544 102.714 46.6041 101.868 46.6134 100.871C46.6227 99.8749 46.2887 99.0346 45.6114 98.3503C44.9342 97.654 44.0978 97.3059 43.1023 97.3059C42.1067 97.3059 41.2639 97.654 40.5737 98.3503C39.8836 99.0346 39.5339 99.8749 39.5247 100.871C39.5154 101.868 39.8493 102.714 40.5265 103.41ZM49.746 105.373L49.8685 92.2279L51.056 92.2279L50.9334 105.373L49.746 105.373ZM53.4532 105.373L53.5758 92.2279L54.7632 92.2279L54.6407 105.373L53.4532 105.373ZM64.7096 104.239C63.7896 105.139 62.6699 105.589 61.3505 105.589C60.0312 105.589 58.9139 105.139 57.9987 104.239C57.0956 103.326 56.6503 102.204 56.6627 100.871C56.6751 99.5388 57.1413 98.4223 58.0613 97.522C58.9934 96.6096 60.1191 96.1535 61.4385 96.1535C62.7579 96.1535 63.8691 96.6096 64.7722 97.522C65.6874 98.4223 66.1388 99.5388 66.1263 100.871C66.1139 102.204 65.6417 103.326 64.7096 104.239ZM58.852 103.41C59.5293 104.095 60.3658 104.437 61.3613 104.437C62.3568 104.437 63.1996 104.095 63.8897 103.41C64.5799 102.714 64.9296 101.868 64.9389 100.871C64.9482 99.8749 64.6142 99.0346 63.9369 98.3503C63.2597 97.654 62.4233 97.3059 61.4278 97.3059C60.4322 97.3059 59.5894 97.654 58.8992 98.3503C58.2091 99.0346 57.8595 99.8749 57.8502 100.871C57.8409 101.868 58.1748 102.714 58.852 103.41ZM78.635 96.3695L79.8584 96.3695L77.0038 105.373L75.7084 105.373L73.4551 98.1162L71.0665 105.373L69.7711 105.373L67.0843 96.3695L68.3078 96.3695L70.4511 103.842L72.8777 96.3695L74.0651 96.3695L76.3524 103.842L78.635 96.3695ZM85.4559 96.1535C86.7872 96.1535 87.8563 96.6276 88.6631 97.576C89.482 98.5124 89.8854 99.6228 89.8735 100.907C89.8722 101.039 89.8585 101.225 89.8323 101.466L81.9339 101.466C82.0454 102.378 82.4224 103.104 83.0651 103.644C83.7199 104.173 84.527 104.437 85.4866 104.437C86.1703 104.437 86.7593 104.299 87.2536 104.023C87.7601 103.734 88.1414 103.362 88.3975 102.906L89.4353 103.518C89.0336 104.155 88.4891 104.659 87.802 105.031C87.1148 105.403 86.3334 105.589 85.4578 105.589C84.0425 105.589 82.8952 105.145 82.0159 104.257C81.1366 103.368 80.7033 102.24 80.716 100.871C80.7286 99.5268 81.1768 98.4043 82.0608 97.504C82.9448 96.6036 84.0765 96.1535 85.4559 96.1535ZM85.4451 97.3059C84.5095 97.3059 83.7213 97.588 83.0803 98.1522C82.4515 98.7045 82.0729 99.4247 81.9447 100.313L88.6556 100.313C88.5445 99.3647 88.1855 98.6264 87.5787 98.0982C86.9719 97.57 86.2607 97.3059 85.4451 97.3059ZM92.9781 97.8641C93.5401 96.7717 94.4927 96.2255 95.8361 96.2255L95.8254 97.3779C95.0097 97.3779 94.3298 97.618 93.7856 98.0982C93.2414 98.5784 92.9644 99.3347 92.9548 100.367L92.9081 105.373L91.7207 105.373L91.8046 96.3695L92.9921 96.3695L92.9781 97.8641ZM98.0243 98.7285C98.0205 99.1366 98.1974 99.4607 98.555 99.7008C98.9126 99.9409 99.3487 100.127 99.8632 100.259C100.378 100.391 100.892 100.541 101.406 100.709C101.921 100.865 102.356 101.135 102.712 101.52C103.069 101.892 103.244 102.384 103.238 102.996C103.231 103.764 102.919 104.389 102.303 104.869C101.699 105.349 100.917 105.589 99.9575 105.589C99.0939 105.589 98.358 105.397 97.7499 105.013C97.1537 104.629 96.7386 104.131 96.5044 103.518L97.5174 102.924C97.681 103.392 97.9774 103.764 98.4066 104.041C98.848 104.305 99.3685 104.437 99.9682 104.437C100.556 104.437 101.049 104.323 101.447 104.095C101.845 103.854 102.046 103.488 102.051 102.996C102.054 102.588 101.878 102.264 101.52 102.024C101.162 101.784 100.726 101.598 100.212 101.466C99.6973 101.333 99.1829 101.189 98.6685 101.033C98.1543 100.865 97.7191 100.595 97.3627 100.223C97.0065 99.8389 96.8312 99.3407 96.8369 98.7285C96.8437 97.9962 97.1373 97.3839 97.7176 96.8917C98.3099 96.3995 99.0499 96.1535 99.9375 96.1535C100.669 96.1535 101.309 96.3215 101.858 96.6576C102.407 96.9818 102.81 97.4259 103.069 97.9902L102.074 98.5664C101.734 97.7261 101.018 97.3059 99.9267 97.3059C99.411 97.3059 98.966 97.432 98.5918 97.6841C98.2178 97.9241 98.0286 98.2723 98.0243 98.7285Z" fill="white"/>
<path d="M31.2858 83.3844L31.3496 76.5338C32.842 74.2715 34.2929 71.8919 35.7022 69.395C37.1115 66.898 38.3823 64.3903 39.5146 61.872C40.6684 59.3323 41.5869 56.8781 42.27 54.5091C42.9531 52.1402 43.3039 49.9633 43.3224 47.9786C43.3355 46.57 43.2092 45.2575 42.9433 44.041C42.6774 42.8245 42.0541 42.2163 41.0732 42.2163C40.0923 42.2163 39.4576 42.8245 39.1691 44.041C38.8807 45.2362 38.7299 46.5487 38.7165 47.9786L38.6861 51.2438L31.7773 51.2438L31.8077 47.9786C31.8252 46.1005 32.0009 44.4145 32.3347 42.9206C32.69 41.4053 33.235 40.1248 33.9697 39.0791C34.7047 38.012 35.6611 37.201 36.8391 36.6461C38.0171 36.0912 39.4483 35.8138 41.1329 35.8138C42.8174 35.8138 44.2435 36.0912 45.4111 36.6461C46.5788 37.201 47.5203 37.9907 48.2357 39.0151C48.9512 40.0395 49.4621 41.2773 49.7684 42.7285C50.0962 44.1584 50.2519 45.759 50.2354 47.5304C50.2157 49.6432 49.8746 51.9268 49.212 54.3811C48.5709 56.814 47.7159 59.3217 46.647 61.904C45.5996 64.465 44.4246 66.994 43.1219 69.491C41.8194 71.9666 40.4968 74.3142 39.154 76.5338L50.093 76.5338L50.0291 83.3844L31.2858 83.3844ZM53.9493 83.3844L54.0155 76.2777L60.7324 76.2777L60.6662 83.3844L53.9493 83.3844ZM64.5829 83.3844L64.6467 76.5338C66.1391 74.2715 67.59 71.8919 68.9993 69.395C70.4086 66.898 71.6794 64.3903 72.8117 61.872C73.9655 59.3323 74.884 56.8781 75.5671 54.5091C76.2502 52.1402 76.601 49.9633 76.6195 47.9786C76.6326 46.57 76.5063 45.2575 76.2404 44.041C75.9745 42.8245 75.3512 42.2163 74.3703 42.2163C73.3894 42.2163 72.7547 42.8245 72.4662 44.041C72.1778 45.2362 72.027 46.5487 72.0136 47.9786L71.9832 51.2438L65.0744 51.2438L65.1048 47.9786C65.1223 46.1005 65.298 44.4145 65.6318 42.9206C65.9871 41.4053 66.5321 40.1248 67.2668 39.0791C68.0018 38.012 68.9582 37.201 70.1362 36.6461C71.3142 36.0912 72.7454 35.8138 74.43 35.8138C76.1145 35.8138 77.5406 36.0912 78.7082 36.6461C79.8759 37.201 80.8174 37.9907 81.5328 39.0151C82.2483 40.0395 82.7592 41.2773 83.0655 42.7285C83.3933 44.1584 83.549 45.759 83.5325 47.5304C83.5128 49.6432 83.1717 51.9268 82.5091 54.3811C81.868 56.814 81.013 59.3217 79.9441 61.904C78.8967 64.465 77.7216 66.994 76.419 69.491C75.1165 71.9666 73.7939 74.3142 72.4511 76.5338L83.3901 76.5338L83.3262 83.3844L64.5829 83.3844ZM87.5023 83.3844L87.8313 48.0906L94.4042 48.0906L97.0644 66.3858L97.2868 68.2585L97.3828 68.2585L97.6401 66.3858L100.641 48.0906L107.214 48.0906L106.885 83.3844L102.088 83.3844L102.308 59.7112L102.02 59.7112L101.815 61.1997L98.5372 83.3844L95.8504 83.3844L92.9866 61.1997L92.8086 59.7112L92.5207 59.7112L92.3 83.3844L87.5023 83.3844Z" fill="white"/>
</svg>
