<svg width="12" height="21" viewBox="0 0 12 21" fill="none" xmlns="http://www.w3.org/2000/svg">
<g clip-path="url(#clip0_4447_376)">
<g clip-path="url(#clip1_4447_376)">
<mask id="mask0_4447_376" style="mask-type:luminance" maskUnits="userSpaceOnUse" x="0" y="4" width="12" height="13">
<path d="M12 4.00977H0V16.0098H12V4.00977Z" fill="white"/>
</mask>
<g mask="url(#mask0_4447_376)">
<path d="M9.67538 7.00872C9.67538 7.38147 9.37313 7.68372 9.00075 7.68372C8.62838 7.68372 8.32613 7.38147 8.32613 7.0091C8.32613 6.63635 8.62838 6.33447 9.00075 6.33447C9.37313 6.33485 9.675 6.63635 9.67538 7.00872ZM5.9985 11.8848C4.96313 11.8848 4.12388 11.0456 4.12388 10.0102C4.12388 8.97485 4.96313 8.1356 5.9985 8.1356C7.03388 8.1356 7.87313 8.97485 7.87313 10.0102C7.87313 11.0452 7.0335 11.8848 5.9985 11.8848ZM5.9985 7.12272C4.40363 7.12272 3.111 8.41572 3.111 10.0102C3.111 11.6047 4.404 12.8977 5.9985 12.8977C7.59338 12.8977 8.886 11.6047 8.886 10.0102C8.886 8.41572 7.59338 7.12272 5.9985 7.12272ZM5.9985 5.39922C7.49963 5.39922 7.6785 5.40672 8.27138 5.4326C8.6475 5.4371 9.00525 5.50835 9.33638 5.63435L9.315 5.62722C9.80775 5.81922 10.1903 6.20172 10.3781 6.68172L10.3826 6.69447C10.5011 7.00422 10.5716 7.36235 10.5761 7.73622V7.7381C10.6028 8.33135 10.6088 8.50947 10.6088 10.011C10.6088 11.5125 10.6016 11.691 10.5743 12.2838C10.5671 12.6603 10.4955 13.0181 10.3699 13.3492L10.377 13.3275C10.2803 13.581 10.137 13.797 9.95588 13.9747C9.77851 14.1562 9.56213 14.2999 9.321 14.391L9.309 14.3951C8.99813 14.5136 8.63888 14.5841 8.2635 14.5886H8.26163C7.66463 14.6153 7.48875 14.6213 5.98463 14.6213C4.47975 14.6213 4.30425 14.6141 3.70763 14.5868C3.32963 14.5796 2.97038 14.508 2.63775 14.3824L2.65988 14.3895C2.40638 14.2943 2.19038 14.1506 2.01413 13.9687C1.83076 13.7925 1.68638 13.5757 1.596 13.3335L1.59225 13.3218C1.47413 13.0113 1.4025 12.6525 1.39538 12.2775V12.2745C1.37438 11.6838 1.36688 11.5016 1.36688 10.0046C1.36688 8.50685 1.37438 8.32422 1.39538 7.72647C1.4025 7.34885 1.47375 6.98997 1.59938 6.65772L1.59225 6.67985C1.68488 6.42522 1.82925 6.20847 2.01338 6.03335L2.01413 6.0326C2.18963 5.8481 2.406 5.70447 2.64863 5.6156L2.66025 5.61185C2.96888 5.4926 3.3255 5.42097 3.69825 5.4146H3.70088C4.29825 5.3936 4.47413 5.38647 5.97788 5.38647L5.9985 5.39922ZM5.9985 4.38672C4.47075 4.38672 4.28025 4.39384 3.68025 4.42047C3.18713 4.43097 2.7195 4.52622 2.28675 4.69159L2.31525 4.68222C1.92525 4.83109 1.593 5.05197 1.31925 5.33022C1.03987 5.60397 0.819 5.93697 0.6765 6.30822L0.670125 6.32697C0.514125 6.73122 0.418875 7.19922 0.40875 7.68747V7.69197C0.380625 8.29197 0.375 8.48247 0.375 10.0102C0.375 11.538 0.382125 11.7285 0.40875 12.3285C0.41925 12.8216 0.5145 13.2892 0.679875 13.722L0.6705 13.6935C0.969 14.4514 1.55738 15.0398 2.29575 15.3315L2.31525 15.3383C2.7195 15.4939 3.1875 15.5891 3.67575 15.5996H3.68025C4.28025 15.6278 4.47075 15.6334 5.9985 15.6334C7.52625 15.6334 7.71675 15.6263 8.31675 15.5996C8.80988 15.5888 9.2775 15.4939 9.71025 15.3285L9.68175 15.3383C10.4396 15.0398 11.028 14.4514 11.3198 13.713L11.3265 13.6935C11.4825 13.2892 11.5774 12.8212 11.5879 12.333V12.3285C11.616 11.7285 11.6216 11.538 11.6216 10.0102C11.6216 8.48247 11.6145 8.29197 11.5879 7.69197C11.577 7.19885 11.4821 6.73122 11.3168 6.29847L11.3265 6.32697C11.1773 5.93697 10.9568 5.60472 10.6781 5.33097C10.4043 5.05159 10.0714 4.83072 9.70013 4.68822L9.68138 4.68184C9.27713 4.52584 8.80913 4.43059 8.32088 4.42047H8.31638C7.71638 4.39234 7.52625 4.38672 5.9985 4.38672Z" fill="white"/>
</g>
</g>
</g>
<defs>
<clipPath id="clip0_4447_376">
<rect width="12" height="20.02" fill="white"/>
</clipPath>
<clipPath id="clip1_4447_376">
<rect width="12" height="12" fill="white" transform="translate(0 4.00977)"/>
</clipPath>
</defs>
</svg>
