<svg width="37" height="24" viewBox="0 0 37 24" fill="none" xmlns="http://www.w3.org/2000/svg">
<path d="M0.378857 10.8407L10.7121 0.383328C11.2171 -0.127776 12.0335 -0.127776 12.5385 0.383328C13.0435 0.894432 13.0435 1.72056 12.5385 2.23167L4.41011 10.4577H34.8751C35.5881 10.4577 36.1667 11.042 36.1667 11.7649C36.1667 12.4877 35.5881 13.072 34.8751 13.072H4.41011L12.5385 21.2981C13.0435 21.8092 13.0435 22.6353 12.5385 23.1464C12.2866 23.4013 11.956 23.5294 11.6253 23.5294C11.2946 23.5294 10.964 23.4013 10.7121 23.1464L0.378857 12.689C-0.126179 12.1779 -0.126179 11.3518 0.378857 10.8407Z" fill="black"/>
</svg>
