<svg width="19" height="14" viewBox="0 0 19 14" fill="none" xmlns="http://www.w3.org/2000/svg">
<path d="M9.48766 11.4988L16.7065 6.27115C17.2255 5.89547 18.0668 5.89547 18.5856 6.27115C19.1046 6.64682 19.1046 7.25604 18.5856 7.63187L10.4269 13.54C10.1674 13.7278 9.8276 13.8217 9.48766 13.8217C9.14759 13.8217 8.80757 13.7277 8.54818 13.54L0.389549 7.63187C-0.129704 7.25604 -0.129704 6.64679 0.389549 6.27115C0.90834 5.89547 1.74977 5.89547 2.26852 6.27115L9.48766 11.4988ZM2.26852 0.281757C1.74973 -0.0939192 0.908298 -0.0939192 0.389549 0.281757C-0.129704 0.657434 -0.129704 1.26647 0.389549 1.64251L8.54813 7.55065C8.80753 7.73849 9.14755 7.83215 9.48762 7.83215C9.82756 7.83215 10.1676 7.7383 10.4268 7.55065L18.5856 1.64251C19.1046 1.2665 19.1046 0.657434 18.5856 0.281757C18.0668 -0.0939192 17.2255 -0.0939192 16.7065 0.281757L9.48766 5.50957L2.26852 0.281757Z" fill="#0084FF"/>
</svg>
