<svg width="7" height="7" viewBox="0 0 7 7" fill="none" xmlns="http://www.w3.org/2000/svg">
<path fill-rule="evenodd" clip-rule="evenodd" d="M6.95349 3.47674C6.95349 1.55758 5.39591 0 3.47674 0C1.55758 0 0 1.55758 0 3.47674C0 5.39591 1.55758 6.95349 3.47674 6.95349C5.39591 6.95349 6.95349 5.39591 6.95349 3.47674ZM3.02326 2.11628V3.62791C3.02326 3.79963 3.12061 3.95684 3.27419 4.03363L4.18116 4.48712C4.40488 4.59898 4.67758 4.50828 4.78944 4.28395C4.9013 4.06023 4.8106 3.78754 4.58628 3.67567L3.93023 3.34735V2.11628C3.93023 1.86595 3.72707 1.66279 3.47674 1.66279C3.22642 1.66279 3.02326 1.86595 3.02326 2.11628Z" fill="#0084FF"/>
</svg>
