<svg width="69" height="21" viewBox="0 0 69 21" fill="none" xmlns="http://www.w3.org/2000/svg">
<path d="M19.4571 2.38788C19.4571 1.0691 18.3049 0 16.8837 0C15.4625 0 14.3104 1.0691 14.3104 2.38788V7.416C9.37183 7.78293 6.12975 8.68351 3.74786 10.8937C1.36597 13.104 0.395438 16.1124 0 20.695H68.0786C67.6833 16.1124 66.7126 13.104 64.3308 10.8937C61.9489 8.68351 58.7068 7.78293 53.7684 7.416V2.38788C53.7684 1.0691 52.6162 0 51.195 0C49.7738 0 48.6217 1.0691 48.6217 2.38788V7.20472C46.3389 7.16364 43.7803 7.16364 40.9016 7.16364H27.1771C24.2983 7.16364 21.7397 7.16364 19.4571 7.20472V2.38788Z" fill="#1A90FF"/>
</svg>
