<svg width="43" height="43" viewBox="0 0 43 43" fill="none" xmlns="http://www.w3.org/2000/svg">
<path d="M12.7044 2.98477C12.7553 3.28082 12.7868 3.66087 12.8975 3.64302C12.9364 3.63672 12.844 3.36429 12.7044 2.98477ZM42.227 42.5182C41.0533 43.1654 39.4538 42.862 38.4418 42.7812C37.4297 42.6998 35.5673 42.9224 35.2434 42.356C34.919 41.7896 35.4256 40.313 35.4455 39.5041C35.466 38.6947 35.4051 37.9057 35.4051 36.9346C35.4051 35.964 35.0004 34.8512 34.9799 33.2937C34.96 31.7358 36.0329 30.603 36.0329 30.603C36.0329 30.603 35.6261 30.6634 34.5957 31.1494C33.7574 31.5447 33.413 32.1373 32.7716 32.8218C32.5921 33.0134 32.3889 33.2118 32.1459 33.415C31.0934 34.2948 30.2436 34.6286 28.2998 35.1751C27.4358 35.4176 26.271 35.6244 25.1928 35.5052C25.1377 35.5603 25.0815 35.616 25.0253 35.6722C25.0227 35.6743 25.0206 35.6769 25.018 35.679C24.9634 35.7336 24.9083 35.7882 24.8526 35.8428C24.8495 35.8454 24.8468 35.8485 24.8442 35.8512C24.7891 35.9052 24.734 35.9593 24.6783 36.0139C24.6741 36.0176 24.6705 36.0212 24.6663 36.0254C24.6117 36.0784 24.5571 36.132 24.5025 36.1845C24.4978 36.1892 24.4931 36.1939 24.4883 36.1987C24.4343 36.2506 24.3807 36.3026 24.3267 36.3546C24.3209 36.3598 24.3156 36.3651 24.3099 36.3703C24.2563 36.4217 24.2028 36.4727 24.1498 36.5236C24.1445 36.5283 24.1393 36.5336 24.1335 36.5388C24.081 36.5887 24.028 36.6385 23.976 36.6879C23.9697 36.6931 23.9634 36.6989 23.9576 36.7047C23.9057 36.7535 23.8542 36.8013 23.8028 36.8485C23.797 36.8543 23.7912 36.8601 23.7849 36.8653C23.734 36.9125 23.6831 36.9593 23.6327 37.0049C23.6275 37.0102 23.6217 37.0154 23.6164 37.0202C23.566 37.0658 23.5162 37.111 23.4668 37.1551C23.4621 37.1593 23.4569 37.1645 23.4516 37.1687C23.4023 37.2128 23.3534 37.2558 23.3057 37.2978C23.3015 37.3015 23.2968 37.3057 23.292 37.3094C23.2443 37.3514 23.197 37.3923 23.1508 37.4317C23.1472 37.4354 23.143 37.439 23.1388 37.4422C23.092 37.4821 23.0464 37.5204 23.0023 37.5572C22.9991 37.5598 22.9954 37.5624 22.9923 37.565C22.9477 37.6023 22.9036 37.6375 22.8611 37.6716C22.859 37.6732 22.8563 37.6753 22.8537 37.6774C22.8107 37.7115 22.7687 37.744 22.7288 37.7745C22.7272 37.7755 22.7256 37.7766 22.7246 37.7776C22.6826 37.8091 22.6427 37.8385 22.6049 37.8653C22.0023 38.291 21.2779 38.6763 20.6338 38.9907C19.9939 39.303 19.4323 39.5445 19.1504 39.6857C18.5835 39.9692 17.9557 40.839 17.0649 40.8185C16.1746 40.7985 16.1946 40.6568 15.2229 40.3335C14.2508 40.0096 12.4498 40.1513 10.243 39.8274C8.03624 39.5041 6.51816 40.313 5.82999 40.2925C5.14234 40.2726 0.162411 40.7985 0.0201569 40.576C-0.121571 40.3534 0.52618 40.1513 0.749271 40.0295C0.97184 39.9088 1.45739 38.9981 1.923 38.8159C2.38913 38.6343 3.01641 38.6343 3.50249 38.4721C3.98804 38.3104 4.67621 37.2789 5.28355 37.2485C5.89088 37.2181 6.25518 38.1886 6.61947 38.2191C6.98429 38.2495 10.9317 37.1876 12.571 37.1572C14.2109 37.1267 15.2156 37.6621 16.0024 37.7335C16.3762 37.7676 16.9442 37.1262 17.6313 36.3756C17.8649 36.1204 18.1126 35.8527 18.3709 35.5945C19.0921 34.8738 20.9818 33.6979 20.9818 33.2124C20.9818 33.1898 20.9834 33.1641 20.985 33.1373C20.9855 33.1326 20.9855 33.1273 20.986 33.1226C20.9876 33.0958 20.9908 33.0675 20.9939 33.0376C20.995 33.0318 20.9955 33.0255 20.9965 33.0197C21.0002 32.9877 21.0049 32.9552 21.0102 32.92C21.0102 32.9195 21.0102 32.9189 21.0107 32.9184C21.016 32.8838 21.0223 32.8476 21.0296 32.8103C21.0312 32.8029 21.0322 32.7951 21.0338 32.7877C21.0406 32.751 21.0485 32.7132 21.0569 32.6743C21.059 32.6654 21.0611 32.6565 21.0632 32.6476C21.0716 32.6082 21.0811 32.5678 21.091 32.5268C21.0921 32.5226 21.0931 32.5184 21.0942 32.5148C21.1042 32.4743 21.1147 32.4334 21.1257 32.3919C21.1288 32.3809 21.1315 32.3704 21.1346 32.3599C21.1462 32.3179 21.1582 32.2749 21.1708 32.2313C21.174 32.2197 21.1776 32.2082 21.1813 32.1967C21.1939 32.1536 21.207 32.1106 21.2207 32.067C21.2233 32.0591 21.2259 32.0512 21.2286 32.0429C21.2422 32.0014 21.2559 31.9594 21.2706 31.9163C21.2748 31.9043 21.279 31.8917 21.2832 31.8791C21.2984 31.8345 21.3147 31.7898 21.3314 31.7447C21.3362 31.7316 21.3409 31.7184 21.3461 31.7053C21.3624 31.6618 21.3792 31.6177 21.3965 31.5741C21.4002 31.5646 21.4039 31.5557 21.4076 31.5463C21.4244 31.5043 21.4417 31.4628 21.4595 31.4213C21.4648 31.4082 21.47 31.3956 21.4753 31.383C21.4947 31.3384 21.5146 31.2943 21.5351 31.2502C21.5409 31.2381 21.5461 31.2255 21.5524 31.2135C21.5729 31.1694 21.5939 31.1258 21.616 31.0822C21.6191 31.0759 21.6228 31.0696 21.6254 31.0628C21.6469 31.0219 21.6679 30.9815 21.6894 30.9421C21.6931 30.9353 21.6968 30.9279 21.7005 30.9211C21.7026 30.9169 21.7052 30.9132 21.7073 30.909C21.7288 30.8707 21.7503 30.8329 21.7724 30.7962C21.7782 30.7867 21.7839 30.7773 21.7897 30.7683C21.8086 30.7368 21.8275 30.7064 21.8469 30.6765C21.8511 30.6707 21.8548 30.6644 21.8585 30.6586L21.859 30.6581C21.8606 30.6555 21.8621 30.6529 21.8637 30.6508C21.8789 30.6271 21.8947 30.6046 21.9104 30.5825C21.9146 30.5762 21.9188 30.5704 21.9225 30.5652C21.943 30.5363 21.9635 30.509 21.9839 30.4817C22.0054 30.4539 22.0285 30.4261 22.0522 30.3983C22.06 30.3888 22.0684 30.3799 22.0768 30.3704C22.0936 30.3516 22.111 30.3321 22.1293 30.3132C22.1388 30.3027 22.1488 30.2928 22.1587 30.2823C22.1771 30.2634 22.196 30.2445 22.2159 30.225C22.2254 30.2156 22.2348 30.2062 22.2453 30.1967C22.2695 30.1736 22.2947 30.1505 22.3209 30.1274C22.3262 30.1227 22.3314 30.1174 22.3372 30.1127C22.3692 30.0838 22.4028 30.0555 22.4369 30.0277C22.4453 30.0209 22.4537 30.014 22.4621 30.0072C22.4884 29.9862 22.5151 29.9647 22.543 29.9437C22.555 29.9342 22.5671 29.9248 22.5792 29.9159C22.6044 29.897 22.6301 29.8781 22.6558 29.8592C22.6689 29.8497 22.6815 29.8403 22.6952 29.8308C22.723 29.8109 22.7514 29.7915 22.7797 29.772C22.7886 29.7657 22.797 29.76 22.806 29.7537H22.8065C22.8065 29.7537 22.807 29.7531 22.8075 29.7531C22.8448 29.7279 22.8826 29.7027 22.9214 29.6781C22.923 29.6776 22.9241 29.6765 22.9256 29.6755C22.965 29.6508 23.0049 29.6256 23.0458 29.6009C23.0474 29.5999 23.049 29.5988 23.0506 29.5983C23.0894 29.5747 23.1288 29.5516 23.1687 29.529C23.1739 29.5259 23.1792 29.5227 23.1844 29.5196C23.2217 29.4986 23.259 29.4776 23.2968 29.4571C23.3078 29.4492 23.3183 29.4419 23.3293 29.434C23.3555 29.4146 23.3828 29.3946 23.4096 29.3736C23.4107 29.3731 23.4122 29.372 23.4128 29.371C23.4653 29.3311 23.5188 29.2875 23.5734 29.2408C23.5776 29.2371 23.5823 29.2335 23.587 29.2293C23.6122 29.2072 23.638 29.1847 23.6637 29.161C23.6673 29.1574 23.671 29.1537 23.6752 29.1505C23.6983 29.1285 23.7219 29.1064 23.745 29.0839C23.7492 29.0797 23.7534 29.0755 23.7576 29.0718C23.7823 29.0471 23.807 29.0225 23.8311 28.9967C23.8374 28.9904 23.8432 28.9841 23.8495 28.9773C23.8736 28.9516 23.8978 28.9253 23.9219 28.898C23.9261 28.8933 23.9303 28.8881 23.9345 28.8833C23.9555 28.8587 23.9765 28.834 23.9975 28.8083C24.0028 28.802 24.008 28.7957 24.0138 28.7889C24.0358 28.7605 24.0584 28.7316 24.0799 28.7022C24.0862 28.6944 24.092 28.686 24.0983 28.6776C24.1204 28.6471 24.1419 28.6167 24.1629 28.5852C24.1665 28.5805 24.1697 28.5747 24.1728 28.57C24.1912 28.5416 24.2096 28.5128 24.2274 28.4834C24.2327 28.4744 24.2385 28.4655 24.2437 28.4566C24.2626 28.4246 24.281 28.3915 24.2988 28.3579C24.3041 28.3485 24.3088 28.3385 24.3141 28.3285C24.3303 28.297 24.3466 28.2645 24.3618 28.2314C24.365 28.224 24.3686 28.2167 24.3718 28.2093C24.3865 28.1763 24.4007 28.1427 24.4143 28.1086C24.4185 28.097 24.4232 28.086 24.4274 28.075C24.4411 28.0387 24.4537 28.002 24.4658 27.9647C24.47 27.9532 24.4731 27.9416 24.4768 27.9301C24.4868 27.897 24.4962 27.8634 24.5051 27.8293C24.5072 27.8204 24.5098 27.8115 24.5119 27.8025C24.5214 27.7637 24.5298 27.7243 24.5371 27.6839C24.5398 27.6703 24.5424 27.6566 24.5445 27.643C24.5513 27.6031 24.5571 27.5626 24.5618 27.5212C24.5634 27.5081 24.5644 27.4944 24.5655 27.4813C24.5692 27.4472 24.5713 27.4125 24.5734 27.3773C24.5739 27.3642 24.5749 27.3516 24.5755 27.3385C24.576 27.3159 24.5755 27.2934 24.5755 27.2708C24.576 27.2414 24.577 27.212 24.576 27.1826C24.5744 27.1275 24.5707 27.0713 24.565 27.0146C24.5529 26.8928 24.5392 26.7742 24.523 26.6587C24.4395 26.0572 24.3046 25.5391 24.1524 25.0971C23.8915 24.3375 23.5776 23.8 23.3807 23.442C23.3765 23.4347 23.3723 23.4268 23.3681 23.4189C23.0338 22.7995 22.4684 21.4788 21.5593 20.8326C21.1845 20.5665 21.0926 19.9649 21.1136 19.3492C20.5141 18.2952 20.2333 17.2773 20.0554 16.4128C19.6328 16.3808 19.1257 16.2774 18.6239 16.018C17.9814 15.6863 17.6166 15.2228 17.4155 14.8601C16.8544 15.6511 15.5998 15.5965 15.3941 13.9514C15.2634 12.9032 16.6948 11.9835 17.3672 12.8769C17.5504 12.405 17.8407 11.9489 18.1971 11.5903C17.9184 11.32 17.5 10.9741 17.2675 10.5967C16.9436 10.0707 15.7899 7.6025 15.2229 6.75318C14.6565 5.90333 14.0387 5.23301 13.9983 5.0918C13.9579 4.95008 13.9374 4.84142 13.8062 4.75061C13.3117 4.40836 12.9338 4.87344 12.4902 3.63777C12.3973 3.37951 12.2676 2.72756 12.5485 2.64882C12.56 2.64567 12.5705 2.64672 12.5805 2.65039C12.2692 1.81629 11.8655 0.733906 11.9941 0.578004C12.2067 0.320267 12.834 2.43728 12.9857 2.36169C13.033 2.33754 12.2676 0.0698799 12.5406 0.00164014C12.8282 -0.0702742 13.3679 2.24673 13.4519 2.22416C13.6424 2.17219 12.8902 0.350713 13.1175 0.274599C13.3453 0.199011 13.877 2.18636 14.0135 2.17114C14.15 2.15592 13.6036 0.831016 13.8009 0.742304C13.8823 0.706085 14.0056 0.934951 14.14 1.26565C14.0902 0.970645 14.086 0.755952 14.1752 0.742829C14.4329 0.70661 14.8182 2.81837 15.0455 2.70971C15.204 2.63412 14.4109 1.01001 14.7269 0.964871C14.9951 0.927077 15.4103 2.84881 15.6534 2.79317C15.8108 2.75695 15.1269 1.41263 15.3494 1.32129C15.6444 1.20056 15.8303 2.4546 16.1137 2.78792C16.5683 3.32387 16.7615 4.6493 16.8628 4.99312C16.9641 5.33694 16.9232 5.29652 18.1378 6.53061L20.9315 10.1111C21.0196 10.2282 21.1299 10.5505 21.2364 10.9389C21.5619 11.0066 21.7766 11.0995 21.8627 11.1531C22.06 11.2743 22.0254 11.5436 22.311 11.7137C22.7052 11.9494 23.3435 11.794 23.5109 11.9153C23.6773 12.037 23.4973 12.574 23.3608 12.69C23.2238 12.8066 23.6086 12.8874 23.6999 12.994C23.7907 13.1 23.3755 13.5651 23.4364 13.6008C23.4973 13.636 23.8311 13.5163 23.9072 13.636C23.9681 13.732 23.8212 13.9341 23.8768 13.9698C23.9324 14.005 24.2663 14.1115 24.2463 14.4149C24.2196 14.8191 23.3503 14.9456 23.4012 15.785C23.4317 16.2905 23.7519 17.1041 24.4568 17.7461C24.5886 17.8663 24.8138 17.9571 25.0432 18.0217C25.1539 18.0532 25.2978 18.0994 25.4605 18.1576C25.4684 18.1597 25.4768 18.1618 25.4852 18.1644C25.4857 18.1644 25.4857 18.1644 25.4857 18.1644C26.1413 18.3529 26.7124 18.5781 27.0851 18.83C28.209 19.5886 28.2394 20.1345 28.4515 21.8337C28.5192 22.3743 28.6342 22.7313 28.7591 23.0074C29.0273 23.5995 29.3423 23.8173 29.3423 24.6661C29.3423 25.4509 29.1811 25.8456 29.0546 26.3427C28.9806 26.633 28.9187 26.9579 28.9076 27.4167C28.9066 27.4556 28.9055 27.4955 28.9045 27.5353C28.895 27.9763 28.8893 28.486 28.8473 29.034C28.8473 29.035 28.8473 29.0366 28.8473 29.0377C28.8394 29.1406 28.83 29.245 28.8195 29.35C28.8189 29.3511 28.8189 29.3521 28.8189 29.3532C29.9003 28.7264 31.5884 28.181 33.0881 27.7768C34.6403 27.3584 35.9909 27.0918 36.2555 27.043C36.8019 26.9417 38.1179 27.0629 38.4617 28.2566C38.8061 29.4503 38.5835 30.8256 38.4617 32.7069C38.3405 34.5882 37.6723 36.1257 37.6119 37.744C37.551 39.3624 38.2392 40.1718 38.4822 40.3534C38.7247 40.5356 39.1704 40.6568 40.0003 41.1219C40.8302 41.5875 43.4013 41.871 42.227 42.5182Z" fill="#42A1FA"/>
</svg>
