<svg width="63" height="21" viewBox="0 0 63 21" fill="none" xmlns="http://www.w3.org/2000/svg">
<path d="M17.9437 2.38788C17.9437 1.0691 16.8812 0 15.5705 0C14.2599 0 13.1973 1.0691 13.1973 2.38788V7.416C8.64291 7.78293 5.65299 8.68351 3.45636 10.8937C1.25973 13.104 0.364682 16.1124 0 20.695H62.7836C62.4191 16.1124 61.5239 13.104 59.3273 10.8937C57.1306 8.68351 54.1407 7.78293 49.5864 7.416V2.38788C49.5864 1.0691 48.5238 0 47.2132 0C45.9025 0 44.84 1.0691 44.84 2.38788V7.20472C42.7348 7.16364 40.3752 7.16364 37.7204 7.16364H25.0633C22.4084 7.16364 20.0488 7.16364 17.9437 7.20472V2.38788Z" fill="#0084FF" fill-opacity="0.86"/>
</svg>
