<svg width="18" height="18" viewBox="0 0 18 18" fill="none" xmlns="http://www.w3.org/2000/svg">
<path d="M17.6577 8.07328C17.6577 8.07328 16.4846 6.90012 15.016 5.43155V0.521793C15.016 0.233624 14.7824 0 14.4942 0H12.2586C11.9705 0 11.7369 0.233624 11.7369 0.521793V2.15229C11.0849 1.50029 10.5005 0.91592 10.0649 0.480293C9.45122 -0.157686 8.36113 -0.153337 7.74601 0.480223L0.152845 8.07328C0.00361184 8.22251 -0.0410188 8.44692 0.0397199 8.64193C0.120493 8.83691 0.310739 8.96405 0.521787 8.96405H1.67669V16.1709C1.67669 17.0906 2.42574 17.8105 3.31627 17.8105H14.4942C15.4014 17.8105 16.1338 17.0766 16.1338 16.1709V8.96402H17.2887C17.4998 8.96402 17.69 8.83691 17.7708 8.6419C17.8515 8.44695 17.8069 8.22251 17.6577 8.07328ZM8.90526 14.1777C8.19461 14.1777 5.03008 11.9091 5.03008 9.46414C5.03008 8.25187 6.01633 7.26565 7.22856 7.26565C8.00464 7.26565 8.54971 7.62318 8.90526 8.04319C9.26081 7.62322 9.80591 7.26565 10.582 7.26565C11.7942 7.26565 12.7804 8.25191 12.7804 9.46414C12.7804 11.906 9.6175 14.1777 8.90526 14.1777Z" fill="#0084FF"/>
</svg>
