<svg width="13" height="13" viewBox="0 0 13 13" fill="none" xmlns="http://www.w3.org/2000/svg">
<path fill-rule="evenodd" clip-rule="evenodd" d="M13 6.47884V3.62791H0V9.82558C0 11.0778 1.01521 12.093 2.26744 12.093H7.38581C6.22005 11.3741 5.44186 10.0856 5.44186 8.61628C5.44186 6.36395 7.27093 4.53488 9.52326 4.53488C10.9926 4.53488 12.2811 5.31307 13 6.47884ZM0 2.72093H13V2.26744C13 1.01521 11.9848 0 10.7326 0H9.67442V1.66279C9.67442 1.91312 9.47126 2.11628 9.22093 2.11628C8.9706 2.11628 8.76744 1.91312 8.76744 1.66279V0H4.23256V1.66279C4.23256 1.91312 4.0294 2.11628 3.77907 2.11628C3.52874 2.11628 3.32558 1.91312 3.32558 1.66279V0H2.26744C1.01521 0 0 1.01521 0 2.26744V2.72093Z" fill="#0084FF"/>
</svg>
