<svg width="30" height="20" viewBox="0 0 30 20" fill="none" xmlns="http://www.w3.org/2000/svg">
<path d="M0.306684 8.85324L8.67169 0.313051C9.08053 -0.10435 9.74137 -0.10435 10.1502 0.313051C10.559 0.730453 10.559 1.40513 10.1502 1.82253L3.57008 8.54045H28.2322C28.8094 8.54045 29.2778 9.01764 29.2778 9.60798C29.2778 10.1983 28.8094 10.6755 28.2322 10.6755H3.57008L10.1502 17.3934C10.559 17.8108 10.559 18.4855 10.1502 18.9029C9.94631 19.1111 9.67863 19.2157 9.41095 19.2157C9.14327 19.2157 8.87559 19.1111 8.67169 18.9029L0.306684 10.3627C-0.102156 9.94532 -0.102156 9.27064 0.306684 8.85324Z" fill="black"/>
</svg>
