<svg width="68" height="21" viewBox="0 0 68 21" fill="none" xmlns="http://www.w3.org/2000/svg">
<path d="M19.2409 2.38788C19.2409 1.0691 18.1015 0 16.6961 0C15.2907 0 14.1514 1.0691 14.1514 2.38788V7.416C9.2677 7.78293 6.06164 8.68351 3.70622 10.8937C1.35079 13.104 0.391044 16.1124 0 20.695H67.3222C66.9313 16.1124 65.9714 13.104 63.616 10.8937C61.2606 8.68351 58.0545 7.78293 53.1709 7.416V2.38788C53.1709 1.0691 52.0316 0 50.6262 0C49.2208 0 48.0814 1.0691 48.0814 2.38788V7.20472C45.8241 7.16364 43.2939 7.16364 40.4472 7.16364H26.8751C24.0283 7.16364 21.4981 7.16364 19.2409 7.20472V2.38788Z" fill="#1A90FF"/>
</svg>
