<svg width="30" height="20" viewBox="0 0 30 20" fill="none" xmlns="http://www.w3.org/2000/svg">
<path d="M28.9711 8.85324L20.6061 0.313051C20.1973 -0.10435 19.5365 -0.10435 19.1276 0.313051C18.7188 0.730453 18.7188 1.40513 19.1276 1.82253L25.7078 8.54045H1.04563C0.46844 8.54045 0 9.01764 0 9.60798C0 10.1983 0.46844 10.6755 1.04563 10.6755H25.7078L19.1276 17.3934C18.7188 17.8108 18.7188 18.4855 19.1276 18.9029C19.3315 19.1111 19.5992 19.2157 19.8669 19.2157C20.1346 19.2157 20.4022 19.1111 20.6061 18.9029L28.9711 10.3627C29.38 9.94532 29.38 9.27064 28.9711 8.85324Z" fill="white"/>
</svg>
