<svg width="37" height="24" viewBox="0 0 37 24" fill="none" xmlns="http://www.w3.org/2000/svg">
<path d="M35.7879 10.8407L25.4546 0.383328C24.9496 -0.127776 24.1333 -0.127776 23.6282 0.383328C23.1232 0.894432 23.1232 1.72056 23.6282 2.23167L31.7566 10.4577H1.29166C0.578662 10.4577 0 11.042 0 11.7649C0 12.4877 0.578662 13.072 1.29166 13.072H31.7566L23.6282 21.2981C23.1232 21.8092 23.1232 22.6353 23.6282 23.1464C23.8801 23.4013 24.2108 23.5294 24.5414 23.5294C24.8721 23.5294 25.2028 23.4013 25.4546 23.1464L35.7879 12.689C36.2929 12.1779 36.2929 11.3518 35.7879 10.8407Z" fill="white"/>
</svg>
